<?xml version="1.0" encoding="utf-8"?>
<!-- Generator: Adobe Illustrator 24.1.1, SVG Export Plug-In . SVG Version: 6.00 Build 0)  -->
<svg version="1.1" id="Capa_1" xmlns="http://www.w3.org/2000/svg" xmlns:xlink="http://www.w3.org/1999/xlink" x="0px" y="0px"
	 viewBox="0 0 512 512" style="enable-background:new 0 0 512 512;" xml:space="preserve">
<style type="text/css">
	.st0{fill:#0174DF;}
</style>
<g id="XMLID_233_">
	<path id="XMLID_234_" class="st0" d="M141.3,292.6c-6.7-87.4,0.9-152.1,23.4-197.7c3.6-7.3,7.4-13.8,11.5-19.7
		c-18.9,13.9-39.1,35-56.5,66.9c-13.7,25-25.2,73-31,128.4c-3.6,34.9-4.3,75.8-1.6,97.1l1.7,13.2h39.3c0.3-0.6,0.6-1.2,0.8-1.9
		C136.3,361.7,144.4,332.9,141.3,292.6L141.3,292.6z"/>
	<path id="XMLID_255_" class="st0" d="M304.7,0c-1.1,0-8.9,0.5-18.5,4c-6.7,3.8-12.3,8.6-16.6,14.6c-8.2,11.2-8.9,22.5-8.9,22.6
		l-3.4,9.7l-8.9,3.7c-25.3,10.4-92.3,37.9-77.1,235.7c3,38.7-3,68.9-11,91H370c-1-10.3-3.9-22.7-10.8-37.7
		c-10.3-22.4-56.2-118.6-62-133.8c3.5,0,7-0.2,10.4-0.6c15.7-1.8,23.1-4.7,28.5-6.8c6-2.3,8.5-3.3,26.4,1.1l46.4,11.8
		c1.9,0.5,3.8,0.7,5.6,0.7c21.2,0,38.5-28.4,42.5-35.5c4.8-7.2,6.6-15.9,4.8-24.5c-1.7-8.7-6.8-16.2-14.3-21
		c-6.6-4.2-80.5-64.6-112.4-82.5c-7.3-4.1-14.9-7.1-22.9-9V0H304.7z M299.8,120.8c-0.4-8.1,7.2-15,15-15c8.4,0,14.7,6.9,15,15
		c0.4,8.1-7.2,15-15,15C306.4,135.9,300.1,129,299.8,120.8z"/>
	<path id="XMLID_256_" class="st0" d="M106.7,411.3c-10.6,0-20.8,5.1-26.7,13.9c-3.4,5-5.3,11.1-5.3,17.6v9.1h355.7v-9.1
		c0-6.5-2-12.5-5.3-17.6c-5.9-8.8-16-13.9-26.7-13.9H106.7z"/>
	<path id="XMLID_320_" class="st0" d="M49.6,482h406v30h-406V482z"/>
</g>
</svg>
