<?xml version="1.0" encoding="utf-8"?>
<!-- Generator: Adobe Illustrator 24.1.1, SVG Export Plug-In . SVG Version: 6.00 Build 0)  -->
<svg version="1.1" id="Layer_1" xmlns="http://www.w3.org/2000/svg" xmlns:xlink="http://www.w3.org/1999/xlink" x="0px" y="0px"
	 viewBox="0 0 512 512" style="enable-background:new 0 0 512 512;" xml:space="preserve">
<style type="text/css">
	.st0{fill:#A9DBF5;}
	.st1{fill:#88C3E0;}
	.st2{fill:#43809F;}
	.st3{fill:#29CEF6;}
	.st4{fill:#FFC328;}
	.st5{fill:#F78E36;}
	.st6{fill:#3A7190;}
	.st7{fill:#F3F3F3;}
	.st8{fill-rule:evenodd;clip-rule:evenodd;fill:#FFCBBE;}
	.st9{fill-rule:evenodd;clip-rule:evenodd;fill:#477B9E;}
	.st10{fill-rule:evenodd;clip-rule:evenodd;fill:#B3E59F;}
	.st11{fill-rule:evenodd;clip-rule:evenodd;fill:#365E7D;}
	.st12{fill-rule:evenodd;clip-rule:evenodd;fill:#F7BEAF;}
	.st13{fill-rule:evenodd;clip-rule:evenodd;fill:#95D6A4;}
</style>
<g>
	<path class="st0" d="M481.1,400.6H30.9C13.8,400.6,0,386.8,0,369.7V99.2h512v270.5C512,386.8,498.2,400.6,481.1,400.6z"/>
	<path class="st1" d="M481.1,99.2v301.4c17.1,0,30.9-13.8,30.9-30.9V99.2L481.1,99.2z"/>
	<g>
		<path class="st2" d="M103.9,196.1c-2.9-2.9-7.7-2.9-10.6,0l-46.4,46.4c-2.9,2.9-2.9,7.7,0,10.6L92.6,299c1.5,1.5,3.4,2.2,5.3,2.2
			s3.8-0.7,5.3-2.2c2.9-2.9,2.9-7.7,0-10.6l-40.5-40.5l41.1-41.1C106.8,203.8,106.8,199,103.9,196.1L103.9,196.1z"/>
		<path class="st2" d="M264.5,242.5l-46.4-46.4c-2.9-2.9-7.7-2.9-10.6,0c-2.9,2.9-2.9,7.7,0,10.6l41.1,41.1l-40.5,40.5
			c-2.9,2.9-2.9,7.7,0,10.6c1.5,1.5,3.4,2.2,5.3,2.2s3.8-0.7,5.3-2.2l45.8-45.8C267.4,250.2,267.4,245.5,264.5,242.5L264.5,242.5z"
			/>
		<path class="st2" d="M185.8,168.2c-3.9-1.5-8.2,0.5-9.7,4.4l-54.9,144.6c-1.5,3.9,0.5,8.2,4.3,9.7c0.9,0.3,1.8,0.5,2.7,0.5
			c3,0,5.9-1.8,7-4.8l54.9-144.6C191.6,174,189.7,169.7,185.8,168.2L185.8,168.2z"/>
	</g>
	<path class="st3" d="M386.3,196.4h-48.4c-8.5,0-15.5-6.9-15.5-15.5c0-8.5,6.9-15.5,15.5-15.5h48.4c8.5,0,15.5,6.9,15.5,15.5
		C401.8,189.5,394.9,196.4,386.3,196.4z"/>
	<path class="st4" d="M465.6,258.2H337.9c-8.5,0-15.5-6.9-15.5-15.5c0-8.5,6.9-15.5,15.5-15.5h127.7c8.5,0,15.5,6.9,15.5,15.5
		C481.1,251.3,474.2,258.2,465.6,258.2z"/>
	<path class="st5" d="M427.7,320h-89.8c-8.5,0-15.5-6.9-15.5-15.5c0-8.5,6.9-15.5,15.5-15.5h89.8c8.5,0,15.5,6.9,15.5,15.5
		C443.1,313.1,436.2,320,427.7,320z"/>
	<path class="st2" d="M512,109.9H0V66.6c0-17.1,13.8-30.9,30.9-30.9h450.2c17.1,0,30.9,13.8,30.9,30.9V109.9z"/>
	<path class="st6" d="M481.1,35.6v74.2H512V66.6C512,49.5,498.2,35.6,481.1,35.6z"/>
	<circle class="st3" cx="49.5" cy="73.3" r="15.5"/>
	<circle class="st7" cx="109.4" cy="73.3" r="15.5"/>
	<circle class="st5" cx="169.3" cy="73.3" r="15.5"/>
</g>
<g>
	<path class="st8" d="M199.8,163.4c12.7,0,23,10.4,23,23v70.5c8.9-8.9,23.6-8.9,32.5,0l43,43c9.1,9.1,10.6,22.2,10.6,32.8v60h-77.7
		v-21.8c0-4.7-1.4-8.8-4.7-12.1l-43-43c-4.5-4.5-6.7-10.4-6.7-16.3v-42.7v-70.5C176.7,173.8,187.1,163.4,199.8,163.4L199.8,163.4z"
		/>
	<path class="st8" d="M486.6,163.4c-12.7,0-23,10.4-23,23v70.5c-8.9-8.9-23.6-8.9-32.5,0l-43,43c-9.1,9.1-10.6,22.2-10.6,32.8v60
		h77.7v-21.8c0-4.7,1.4-8.8,4.7-12.1l43-43c4.5-4.5,6.7-10.4,6.7-16.3v-42.7v-70.5C509.6,173.8,499.3,163.4,486.6,163.4L486.6,163.4
		z"/>
	<path class="st9" d="M219.9,392.6h100.2c4.9,0,8.9,4,8.9,8.9v47.6c0,4.9-4,8.9-8.9,8.9H219.9c-4.9,0-8.9-4-8.9-8.9v-47.6
		C211,396.6,215,392.6,219.9,392.6z"/>
	<path class="st9" d="M466.5,392.6H366.3c-4.9,0-8.9,4-8.9,8.9v47.6c0,4.9,4,8.9,8.9,8.9h100.2c4.9,0,8.9-4,8.9-8.9v-47.6
		C475.4,396.6,471.4,392.6,466.5,392.6z"/>
	<path class="st10" d="M339.5,100.8l-78.5,78.5c-1.6,2.2-1.6,5.1,0,7.3l21.5,21.5c2.2,1.6,5.1,1.6,7.3,0l9.2-9.2
		c7.8-7.8,20.4-7.8,28.2,0c7.8,7.8,7.8,20.4,0,28.2l-9.2,9.2c-1.6,2.2-1.6,5.1,0,7.3l21.5,21.5c2.2,1.6,5.1,1.6,7.3,0l21.5-21.5
		c1.6-2.2,1.6-5.1,0-7.3l-9.2-9.2c-7.8-7.8-7.8-20.4,0-28.2c7.8-7.8,20.4-7.8,28.2,0l9.2,9.2c2.2,1.6,5.1,1.6,7.3,0l21.5-21.5
		c1.6-2.2,1.6-5.1,0-7.3l-11.4-11.4l-10.1-10c-1.6-2.2-1.6-5.2,0-7.3l9.2-9.2c7.7-7.8,7.7-20.5,0-28.2c-7.8-7.8-20.5-7.8-28.2,0
		l-9.2,9.2c-2.2,1.6-5.1,1.6-7.3,0l-21.5-21.5C344.7,99.3,341.7,99.3,339.5,100.8L339.5,100.8z"/>
	<path class="st11" d="M243.7,438c7,0,12.6-5.7,12.6-12.6c0-7-5.7-12.6-12.6-12.6s-12.6,5.7-12.6,12.6
		C231.1,432.3,236.8,438,243.7,438z"/>
	<path class="st11" d="M442.6,438c7,0,12.6-5.7,12.6-12.6c0-7-5.7-12.6-12.6-12.6c-7,0-12.6,5.7-12.6,12.6
		C430,432.3,435.7,438,442.6,438z"/>
	<path class="st12" d="M431.6,328.9l32-32c5.5-5.5,8.3-12.7,8.3-20c0-7.2-2.7-14.5-8.3-20c-5.1-5.1-12-7.3-18.6-6.6
		c4.1,1,8,3,11.2,6.2c9.1,9.1,9.1,23.8,0,32.9l-32,32c-2.1,2-2.1,5.4,0,7.4C426.2,331,429.5,331,431.6,328.9L431.6,328.9z"/>
	<path class="st12" d="M222.8,186.4c0-10.8-7.5-19.9-17.5-22.3v98.7c0,12.6,1.5,20.4,13.1,28.4c-2.6-4.4-3.9-9.4-3.9-14.3
		c0-7.2,2.8-14.5,8.3-20V186.4z"/>
	<path class="st13" d="M396.4,167.9l11.4,11.4c1.6,2.2,1.6,5.1,0,7.3L391.4,203l5.1,5.1c2.2,1.6,5.1,1.6,7.3,0l21.5-21.5
		c1.6-2.2,1.6-5.1,0-7.3l-11.4-11.4l-10.1-10c-1.6-2.2-1.6-5.2,0-7.3l9.2-9.2c7.7-7.8,7.7-20.5,0-28.2c-6.2-6.2-15.4-7.4-22.9-3.8
		c1.9,1,3.7,2.2,5.4,3.8c7.8,7.7,7.8,20.4,0,28.2l-9.2,9.2c-1.6,2.2-1.6,5.1,0,7.3L396.4,167.9z M350.8,236.3c1.6,2.2,1.6,5.1,0,7.3
		L334.4,260l5.1,5.1c2.2,1.6,5.1,1.6,7.3,0l21.5-21.5c1.6-2.2,1.6-5.1,0-7.3l-9.2-9.2c-7.8-7.8-7.8-20.4,0-28.2
		c1.6-1.6,3.4-2.9,5.4-3.8c-7.4-3.6-16.7-2.3-22.9,3.8c-7.8,7.8-7.8,20.4,0,28.2L350.8,236.3z"/>
	<path class="st12" d="M437.8,363.2v29.4h4.9h12.6v-21.8c0-4.7,1.4-8.8,4.7-12.1l43-43c4.5-4.5,6.7-10.4,6.7-16.3v-42.7v-70.5
		c0-12.7-10.4-23-23-23c-0.1,0-0.3,0-0.4,0c3.7,4.1,5.9,9.5,5.9,15.4v70.5v42.7c0,5.9-2.2,11.8-6.7,16.3l-43,43
		C439.2,354.4,437.8,358.5,437.8,363.2L437.8,363.2z"/>
	<path class="st12" d="M280.8,299.9c9.1,9.1,10.6,22.2,10.6,32.8v60h4.9h12.6v-60c0-10.5-1.4-23.6-10.6-32.8l-43-43
		c-6.7-6.7-16.7-8.4-25-5c2.7,1.1,5.3,2.8,7.5,5L280.8,299.9z"/>
	<g>
		<path class="st11" d="M457.9,401.5v47.6c0,4.9-4,8.9-8.9,8.9h17.5c4.9,0,8.9-4,8.9-8.9v-47.6c0-4.9-4-8.9-8.9-8.9h-11.2H449
			C453.9,392.6,457.9,396.6,457.9,401.5z"/>
		<path class="st11" d="M311.5,401.5v47.6c0,4.9-4,8.9-8.9,8.9h17.5c4.9,0,8.9-4,8.9-8.9v-47.6c0-4.9-4-8.9-8.9-8.9h-11.2h-6.3
			C307.5,392.6,311.5,396.6,311.5,401.5z"/>
	</g>
</g>
</svg>
