<svg id="color" enable-background="new 0 0 24 24" height="512" viewBox="0 0 24 24" width="512" xmlns="http://www.w3.org/2000/svg"><path d="m13.25 0h-10.5c-1.52 0-2.75 1.23-2.75 2.75v15.5c0 1.52 1.23 2.75 2.75 2.75h7.89l.2-1.15c.08-.45.3-.86.62-1.19l4.54-4.54v-11.37c0-1.52-1.23-2.75-2.75-2.75z" fill="#eceff1"/><path d="m8 0h-5.25c-1.52 0-2.75 1.23-2.75 2.75v15.5c0 1.52 1.23 2.75 2.75 2.75h5.25z" fill="#cdd0d2"/><path d="m3.75 13c-.192 0-.384-.073-.53-.22-.293-.293-.293-.768 0-1.061l2.5-2.5c.239-.24.608-.29.902-.121l1.273.728 2.305-2.127c.305-.28.778-.262 1.06.042.281.305.262.779-.042 1.06l-2.708 2.5c-.24.222-.596.263-.881.1l-1.252-.716-2.097 2.095c-.146.147-.338.22-.53.22z" fill="#4caf50"/><path d="m11.25 11c-.195 0-.387-.076-.53-.22l-2.5-2.5c-.215-.214-.279-.537-.163-.817s.39-.463.693-.463h2.5c.414 0 .75.336.75.75v2.5c0 .303-.183.577-.463.693-.093.038-.19.057-.287.057z" fill="#4caf50"/><path d="m9.388 9.449-1.388 1.301-1.418-.811c-.078-.044-.163-.065-.248-.065-.13 0-.258.05-.354.146l-2.76 2.76c.146.147.338.22.53.22s.384-.073.53-.22l2.095-2.095 1.252.716c.117.067.246.1.373.1.184 0 .367-.068.509-.199l1.42-1.312z" fill="#429846"/><path d="m11.773 7.213-2.385 2.236.541.541.79.79c.144.144.335.22.53.22.097 0 .194-.019.287-.057.281-.116.464-.39.464-.693v-2.5c0-.211-.087-.401-.227-.537z" fill="#429846"/><path d="m23.487 13.351-1.237-1.237c-.49-.49-1.386-.737-2.298.177l-7.425 7.424c-.108.109-.182.249-.208.4l-.53 3.005c-.043.241.035.488.208.661.142.142.333.22.53.22l.13-.011 3.005-.53c.152-.027.292-.1.4-.208l7.425-7.425c.683-.684.683-1.794 0-2.476z" fill="#607d8b"/><path d="m22.943 12.807-10.96 10.96c.004.005.009.009.013.014.142.142.333.22.53.22l.13-.011 3.005-.53c.152-.027.292-.1.4-.208l7.425-7.425c.683-.682.683-1.792 0-2.475z" fill="#546d79"/></svg>