<?xml version="1.0" encoding="utf-8"?>
<!-- Generator: Adobe Illustrator 24.1.1, SVG Export Plug-In . SVG Version: 6.00 Build 0)  -->
<svg version="1.1" id="Capa_1" xmlns="http://www.w3.org/2000/svg" xmlns:xlink="http://www.w3.org/1999/xlink" x="0px" y="0px"
	 viewBox="0 0 512 512" style="enable-background:new 0 0 512 512;" xml:space="preserve">
<style type="text/css">
	.st0{fill:#2488FF;}
	.st1{fill:#57565C;}
	.st2{fill:#E9E9EA;}
	.st3{fill:#57A4FF;}
	.st4{fill:#46F8FF;}
	.st5{fill:#FF9811;}
	.st6{fill:#2D2D30;}
</style>
<g id="laptop-qr_code-online-shopping-smartphone-payment">
	<path class="st0" d="M56,56h400c8.8,0,16,7.2,16,16v256l0,0H40l0,0V72C40,63.2,47.2,56,56,56z"/>
	<path class="st1" d="M488,336v24c0,17.7-14.3,32-32,32H56c-17.7,0-32-14.3-32-32v-24c0-4.4,3.6-8,8-8h448
		C484.4,328,488,331.6,488,336z"/>
	<path class="st2" d="M304,328v24c0,4.4-3.6,8-8,8h-80c-4.4,0-8-3.6-8-8v-24H304z"/>
	<path class="st3" d="M280,200h208v208H280V200z"/>
	<path class="st2" d="M488,408v64c0,8.8-7.2,16-16,16H296c-8.8,0-16-7.2-16-16v-64H488z"/>
	<circle class="st4" cx="384" cy="448" r="16"/>
	<path class="st2" d="M488,184v16H280v-16c0-8.8,7.2-16,16-16h176C480.8,168,488,175.2,488,184z"/>
	<path class="st1" d="M328,328h32v32h-32V328z"/>
	<path class="st1" d="M408,248h32v32h-32V248z"/>
	<path class="st1" d="M328,248h32v32h-32V248z"/>
	<circle class="st5" cx="232" cy="256" r="16"/>
	<path class="st5" d="M264,128l-16,88H104v-71.4V128H264z"/>
	<circle class="st5" cx="120" cy="256" r="16"/>
	<g>
		<path class="st6" d="M96,128v88c0,4.4,3.6,8,8,8h144c3.9,0,7.2-2.8,7.9-6.6l16-88c0.8-4.3-2.1-8.5-6.4-9.3
			c-0.5-0.1-0.9-0.1-1.4-0.1H112v-16c0-4.4-3.6-8-8-8H64v16h32V128z M254.4,136l-13.1,72H112v-72H254.4z"/>
		<path class="st6" d="M209.5,248c-0.9,2.6-1.4,5.3-1.5,8c0,13.3,10.7,24,24,24s24-10.7,24-24c0-13.3-10.7-24-24-24H120
			c-13.3,0-24,10.7-24,24c0,13.3,10.7,24,24,24s24-10.7,24-24c0-2.7-0.5-5.4-1.5-8H209.5z M240,256c0,4.4-3.6,8-8,8s-8-3.6-8-8
			s3.6-8,8-8S240,251.6,240,256z M128,256c0,4.4-3.6,8-8,8s-8-3.6-8-8s3.6-8,8-8S128,251.6,128,256z"/>
		<path class="st6" d="M432,352h-24v16h32c4.4,0,8-3.6,8-8v-32h-16V352z"/>
		<path class="st6" d="M360,240h-32c-4.4,0-8,3.6-8,8v32c0,4.4,3.6,8,8,8h32c4.4,0,8-3.6,8-8v-32C368,243.6,364.4,240,360,240z
			 M352,272h-16v-16h16V272z"/>
		<path class="st6" d="M440,240h-32c-4.4,0-8,3.6-8,8v32c0,4.4,3.6,8,8,8h32c4.4,0,8-3.6,8-8v-32C448,243.6,444.4,240,440,240z
			 M432,272h-16v-16h16V272z"/>
		<path class="st6" d="M360,320h-32c-4.4,0-8,3.6-8,8v32c0,4.4,3.6,8,8,8h32c4.4,0,8-3.6,8-8v-32C368,323.6,364.4,320,360,320z
			 M352,352h-16v-16h16V352z"/>
		<path class="st6" d="M376,296h16v16h-16V296z"/>
		<path class="st6" d="M416,296h16v16h-16V296z"/>
		<path class="st6" d="M336,296h24v16h-24V296z"/>
		<path class="st6" d="M376,328h16v40h-16V328z"/>
		<path class="st6" d="M408,328h16v16h-16V328z"/>
		<path class="st6" d="M376,256h16v16h-16V256z"/>
	</g>
</g>
</svg>
