<?xml version="1.0" encoding="utf-8"?>
<!-- Generator: Adobe Illustrator 24.1.1, SVG Export Plug-In . SVG Version: 6.00 Build 0)  -->
<svg version="1.1" id="Capa_1" xmlns="http://www.w3.org/2000/svg" xmlns:xlink="http://www.w3.org/1999/xlink" x="0px" y="0px"
	 viewBox="0 0 477.9 477.9" style="enable-background:new 0 0 477.9 477.9;" xml:space="preserve">
<style type="text/css">
	.st0{fill:#0174DF;}
</style>
<g>
	<g>
		<path class="st0" d="M477,114.1L442.9,11.7C440.5,4.7,434,0,426.7,0H51.2C43.9,0,37.3,4.7,35,11.7L0.9,114.1
			c-0.5,1.6-0.8,3.3-0.9,4.9c0,0.2,0,0.3,0,0.5v17.1c0.1,26.7,12.7,51.9,34.1,67.9c0,0.1,0,0.2,0,0.4v221.9
			c0,28.3,22.9,51.2,51.2,51.2h307.2c28.3,0,51.2-22.9,51.2-51.2v-222c0-0.1,0-0.2,0-0.4c21.4-16,34.1-41.2,34.1-67.9v-17.1
			c0-0.2,0-0.3,0-0.5C477.8,117.3,477.5,115.7,477,114.1z M358.4,34.1h56l22.8,68.3h-78.7V34.1H358.4z M256,34.1h68.3v68.3H256V34.1
			z M153.6,34.1h68.3v68.3h-68.3V34.1z M63.5,34.1h56v68.3H40.7L63.5,34.1z M273.1,443.7h-68.3V307.2h68.3V443.7L273.1,443.7z
			 M409.6,426.7c0,9.4-7.6,17.1-17.1,17.1h-85.3V290.1c0-9.4-7.6-17.1-17.1-17.1H187.7c-9.4,0-17.1,7.6-17.1,17.1v153.6H85.3
			c-9.4,0-17.1-7.6-17.1-17.1V220.2c24,4.9,48.9-0.8,68.3-15.7c30.5,22.4,71.9,22.4,102.4,0c30.5,22.4,71.9,22.4,102.4,0
			c19.4,14.9,44.3,20.6,68.3,15.7L409.6,426.7L409.6,426.7z M392.5,187.7c-14.8,0-28.8-6.5-38.3-17.7c-6.2-7.1-17-7.8-24.1-1.6
			c-0.6,0.5-1.1,1-1.6,1.6c-19,21.2-51.5,23-72.7,4c-1.4-1.3-2.7-2.6-4-4c-6.7-7.1-17.8-7.4-24.9-0.8c-0.3,0.2-0.5,0.5-0.8,0.8
			c-19,21.2-51.5,23-72.7,4c-1.4-1.3-2.7-2.6-4-4c-6.7-7.1-17.8-7.4-24.9-0.8c-0.3,0.2-0.5,0.5-0.8,0.8
			c-9.6,11.2-23.6,17.7-38.3,17.7c-28.3,0-51.2-22.9-51.2-51.2h409.6C443.7,164.8,420.8,187.7,392.5,187.7z"/>
	</g>
</g>
</svg>
