<?xml version="1.0" encoding="utf-8"?>
<!-- Generator: Adobe Illustrator 24.1.1, SVG Export Plug-In . SVG Version: 6.00 Build 0)  -->
<svg version="1.1" id="Capa_1" xmlns="http://www.w3.org/2000/svg" xmlns:xlink="http://www.w3.org/1999/xlink" x="0px" y="0px"
	 viewBox="0 0 512 512" style="enable-background:new 0 0 512 512;" xml:space="preserve">
<style type="text/css">
	.st0{fill:#FFFFFF;}
</style>
<g id="Planning-paper-document-smartphone-pen">
	<path class="st0" d="M488,160h-32v-40c0-4.4-3.6-8-8-8h-56V40c0-13.2-10.8-24-24-24H224c-13.2,0-24,10.8-24,24v72h-72.6
		c-4.7-30.6-33.2-51.6-63.8-46.9C36.4,69.2,16.2,92.5,16,120v320c0,30.9,25.1,56,56,56h416c4.4,0,8-3.6,8-8V168
		C496,163.6,492.4,160,488,160z M392,128h48v32h-48V128z M216,288h112v-16H216V40c0-4.4,3.6-8,8-8h144c4.4,0,8,3.6,8,8v232h-32v16
		h32v24c0,4.4-3.6,8-8,8H224c-4.4,0-8-3.6-8-8V288z M128,128h72v32h-72V128z M32,120c0-22.1,17.9-40,40-40s40,17.9,40,40v280.9
		c-21.5-22.1-56.9-22.6-79-1c-0.4,0.3-0.7,0.7-1,1V120z M480,480H72c-22.1,0-40-17.9-40-40s17.9-40,40-40s40,17.9,40,40
		c0,4.4,3.6,8,8,8s8-3.6,8-8V176h72v136c0,13.2,10.8,24,24,24h144c13.2,0,24-10.8,24-24V176h88V480z"/>
	<path class="st0" d="M432,368h-72c-4.4,0-8,3.6-8,8H200c-0.9,0-1.7,0.2-2.6,0.4l-48,16c-4.2,1.4-6.5,5.9-5.1,10.1
		c0.8,2.4,2.7,4.3,5.1,5.1l48,16c0.8,0.2,1.7,0.4,2.6,0.4h152c0,4.4,3.6,8,8,8h64v16h-72v16h80c4.4,0,8-3.6,8-8v-25.1
		c17.1-4.4,27.4-21.8,23-38.9C459.3,377.9,446.6,368,432,368z M352,408H201.3l-24-8l24-8H352V408z M432,416h-64v-32h64
		c8.8,0,16,7.2,16,16S440.8,416,432,416z"/>
	<path class="st0" d="M296,72c-35.3,0-64,28.7-64,64s28.7,64,64,64s64-28.7,64-64C360,100.7,331.3,72,296,72z M304,88.7
		c20.1,3.4,35.9,19.2,39.3,39.3H304V88.7z M296,184c-26.5-0.2-47.9-21.8-47.7-48.3c0.1-23.2,16.9-43,39.7-47V136c0,4.4,3.6,8,8,8
		h47.3C339.4,167.1,319.4,184,296,184z"/>
	<path class="st0" d="M408,16h16v16h-16V16z"/>
	<path class="st0" d="M440,16h56v16h-56V16z"/>
	<path class="st0" d="M408,48h16v16h-16V48z"/>
	<path class="st0" d="M440,48h56v16h-56V48z"/>
	<path class="st0" d="M408,80h16v16h-16V80z"/>
	<path class="st0" d="M440,80h56v16h-56V80z"/>
</g>
</svg>
